<svg xmlns="http://www.w3.org/2000/svg" viewBox="0 0 320 320"><defs><style>.cls-1{fill:#dcae6d;}.cls-2{fill:#ba6f37;}.cls-3{fill:#edc55d;}.cls-4{fill:#3cb19c;}.cls-5{fill:#be3a2c;}.cls-6{fill:#c49b62;}.cls-7{fill:#a76433;}.cls-8{fill:#37a08d;}</style></defs><title>Artboard 1</title><g id="buns"><path id="buns-2" data-name="buns" class="cls-1" d="M180.62,23H144.06C93.79,23,25.24,64.12,25.24,114.39v9.14c0,5.48,3.66,9.14,9.14,9.14H290.3c5.48,0,9.14-3.66,9.14-9.14v-9.14C299.44,64.12,230.89,23,180.62,23ZM25.24,278.9a18.33,18.33,0,0,0,18.28,18.28H281.16a18.33,18.33,0,0,0,18.28-18.28V260.62H25.24Z"/></g><g id="burger"><path id="burger-2" data-name="burger" class="cls-2" d="M34.38,224.07H290.3a18.28,18.28,0,0,1,0,36.56H34.38a18.28,18.28,0,0,1,0-36.56Z"/></g><g id="cheese"><path id="cheese-2" data-name="cheese" class="cls-3" d="M34.38,187.51H290.3v36.56H272L244.6,251.48l-27.42-27.42H34.38Z"/></g><g id="lettuce"><path id="lettuce-2" data-name="lettuce" class="cls-4" d="M290.3,160.09l-255.91-.91v.91a22.6,22.6,0,1,0,26.51,26.51H98.36c0,10.05,10.05,18.28,22.85,18.28s22.85-8.23,22.85-18.28h36.56c0,10.05,10.05,18.28,22.85,18.28s22.85-8.23,22.85-18.28h37.47A22.6,22.6,0,0,0,308.58,182C308.58,172,300.35,162.83,290.3,160.09Z"/></g><g id="tomato"><path id="tomato-2" data-name="tomato" class="cls-5" d="M34.38,132.67H290.3v27.42H34.38Z"/></g><g id="bun-shadow"><path id="bun-shadow-2" data-name="bun-shadow" class="cls-6" d="M34.38,132.67H52.66c-5.48,0-9.14-3.66-9.14-9.14v-9.14c0-50.27,68.55-91.4,118.82-91.4H144.06C93.79,23,25.24,64.12,25.24,114.39v9.14A9.16,9.16,0,0,0,34.38,132.67ZM43.52,278.9V260.62H25.24V278.9a18.33,18.33,0,0,0,18.28,18.28H61.8A18.33,18.33,0,0,1,43.52,278.9Z"/></g><g id="burger-shadow"><path id="burger-shadow-2" data-name="burger-shadow" class="cls-7" d="M34.38,242.34a18.33,18.33,0,0,1,18.28-18.28H34.38a18.28,18.28,0,0,0,0,36.56H52.66A18.33,18.33,0,0,1,34.38,242.34Z"/></g><g id="lettuce-shadow"><path id="lettuce-shadow-2" data-name="lettuce-shadow" class="cls-8" d="M34.38,182.94A22.56,22.56,0,0,1,52.66,161v-.91H34.38V161A22.6,22.6,0,0,0,39,205.79,27,27,0,0,0,48.09,204,23.09,23.09,0,0,1,34.38,182.94Zm82.26,4.57H98.36c0,10.05,10.05,18.28,22.85,18.28a27,27,0,0,0,9.14-1.83C122.13,201.22,116.64,194.82,116.64,187.51Zm82.26,0H180.62c0,10.05,10.05,18.28,22.85,18.28a27,27,0,0,0,9.14-1.83C204.38,201.22,198.9,194.82,198.9,187.51Zm82.26,0H262.88a22.56,22.56,0,0,0,21.94,18.28A27,27,0,0,0,294,204,25.84,25.84,0,0,1,281.16,187.51Z"/></g></svg>